General
Complete name                    : Inglorious Basterds.mkv
Format                           : Matroska
File size                        : 1.16 GiB
Duration                         : 2h 26mn
Overall bit rate                 : 1 132 Kbps


Video
ID                               : 1
Format                           : AVC
Duration                         : 2h 26mn
Bit rate                         : 726 Kbps
Width                            : 720 pixels
Height                           : 428 pixels
Display aspect ratio             : 2.35:1
Original display aspect ratio    : 2.35:1
Frame rate                       : 25.000 fps
Resolution                       : 8 bits
Colorimetry                      : 4:2:0
Scan type                        : Progressive
Bits/(Pixel*Frame)               : 0.094
Stream size                      : 761 MiB (64%)
Writing library                  : x264 core 79

Audio
ID                               : 2
Format                           : AC-3
Format/Info                      : Audio Coding 3
Codec ID                         : A_AC3
Duration                         : 2h 26mn
Bit rate mode                    : Constant
Bit rate                         : 384 Kbps
Channel(s)                       : 6 channels
Channel positions                : Front: L C R, Surround: L R, LFE
Sampling rate                    : 48.0 KHz
Stream size                      : 403 MiB (34%)
Language                         : English

Text #1
Language                         : English

Text #2
Language                         : Hungarian

Text #3
Language                         : Arabic

Text #4
Language                         : Danish

Text #5
Language                         : Finnish

Text #6
Language                         : Icelandic

Text #7
Language                         : Norwegian

Text #8
Language                         : Swedish

Menu
00:00:00.000                     : Chapter  1


